<svg width="32" height="32" viewBox="0 0 32 32" fill="none" xmlns="http://www.w3.org/2000/svg">
<g id="Calling">
<g id="Iconly/Bold/Calling">
<g id="Group">
<g id="Calling_2">
<path id="Fill-1" d="M19.224 7.31993C18.5893 7.20268 18.0064 7.60773 17.8855 8.22731C17.7647 8.84688 18.171 9.4518 18.7885 9.57305C20.6475 9.93547 22.0829 11.3745 22.4468 13.2399V13.2412C22.5503 13.7782 23.0231 14.1686 23.5675 14.1686C23.6405 14.1686 23.7136 14.1619 23.7879 14.1486C24.4054 14.0247 24.8117 13.4211 24.6909 12.8002C24.1478 10.0141 22.0033 7.86222 19.224 7.31993Z" fill="#DE8556"/>
<path id="Fill-3" d="M19.141 2.67724C18.8435 2.63461 18.5448 2.72255 18.3071 2.91175C18.0627 3.10362 17.91 3.38076 17.8768 3.69122C17.8065 4.31878 18.2593 4.88639 18.886 4.95701C23.2082 5.43935 26.5677 8.80637 27.0537 13.1421C27.1188 13.723 27.6061 14.1614 28.1877 14.1614C28.2316 14.1614 28.2741 14.1587 28.3179 14.1534C28.622 14.1201 28.8928 13.9695 29.0841 13.7297C29.2739 13.4898 29.3603 13.1914 29.3257 12.8862C28.7202 7.47662 24.5334 3.27817 19.141 2.67724Z" fill="#DE8556"/>
</g>
</g>
<g id="Call">
<path id="Stroke-1" fill-rule="evenodd" clip-rule="evenodd" d="M14.7088 17.2965C20.0276 22.6138 21.2342 16.4623 24.6207 19.8464C27.8855 23.1103 29.762 23.7643 25.6255 27.8996C25.1074 28.316 21.8153 33.3257 10.246 21.7596C-1.3248 10.192 3.68195 6.89659 4.09846 6.3786C8.24499 2.23179 8.88765 4.11918 12.1525 7.38311C15.539 10.7687 9.39005 11.9792 14.7088 17.2965Z" fill="#DE8556"/>
</g>
</g>
</g>
</svg>
