<svg width="32" height="32" viewBox="0 0 32 32" fill="none" xmlns="http://www.w3.org/2000/svg">
<g id="Chart">
<g id="Iconly/Bold/Chart">
<g id="Chart_2">
<path id="Vector" d="M22.2257 2.66721C26.7603 2.66721 29.3203 5.23921 29.3337 9.77387V22.2272C29.3337 26.7605 26.7603 29.3339 22.2257 29.3339H9.77366C5.23899 29.3339 2.66699 26.7605 2.66699 22.2272V9.77387C2.66699 5.23921 5.23899 2.66721 9.77366 2.66721H22.2257ZM16.667 8.17387C16.2923 7.94721 15.839 7.94721 15.4803 8.17387C15.119 8.39921 14.9203 8.81387 14.959 9.22721V22.8139C15.027 23.3872 15.5057 23.8139 16.0657 23.8139C16.6403 23.8139 17.119 23.3872 17.1723 22.8139V9.22721C17.2257 8.81387 17.027 8.39921 16.667 8.17387ZM10.4403 12.5472C10.0803 12.3205 9.62566 12.3205 9.26699 12.5472C8.90566 12.7739 8.70699 13.1859 8.74699 13.6005V22.8139C8.79899 23.3872 9.27899 23.8139 9.85232 23.8139C10.427 23.8139 10.9057 23.3872 10.959 22.8139V13.6005C11.0003 13.1859 10.799 12.7739 10.4403 12.5472ZM22.7857 17.3872C22.427 17.1605 21.9737 17.1605 21.6003 17.3872C21.239 17.6139 21.0403 18.0125 21.0937 18.4405V22.8139C21.147 23.3872 21.6257 23.8139 22.2003 23.8139C22.7603 23.8139 23.239 23.3872 23.307 22.8139V18.4405C23.3457 18.0125 23.147 17.6139 22.7857 17.3872Z" fill="#DE8556"/>
</g>
</g>
</g>
</svg>
