<svg width="32" height="32" viewBox="0 0 32 32" fill="none" xmlns="http://www.w3.org/2000/svg">
<g id="Graph">
<g id="Iconly/Bold/Graph">
<g id="Graph_2">
<path id="Vector" d="M11.9413 6.61267C12.5948 6.49035 13.25 6.81664 13.5351 7.40639C13.6061 7.51341 13.6629 7.62885 13.7042 7.74994C13.8853 10.5457 14.0785 13.2941 14.2596 16.0425C14.2555 16.3282 14.3004 16.6126 14.3924 16.8836C14.6091 17.417 15.1483 17.7554 15.7327 17.7247L24.6076 17.1561L24.668 17.1798L24.8299 17.1915C25.1508 17.2325 25.4499 17.379 25.677 17.6094C25.9419 17.8782 26.0871 18.2393 26.0809 18.6132C25.731 23.7094 21.9947 27.9673 16.9102 29.0643C11.8257 30.1613 6.6134 27.8339 4.11688 23.3519C3.38279 22.0609 2.91891 20.6392 2.75244 19.17C2.68788 18.7347 2.65961 18.2949 2.66792 17.8551C2.68475 12.4361 6.54287 7.75876 11.9413 6.61267ZM17.2179 2.66777C23.3123 2.85021 28.4057 7.27441 29.3288 13.1875C29.3346 13.2228 29.3346 13.2588 29.3288 13.2941L29.3271 13.4611C29.3071 13.6817 29.2165 13.8922 29.066 14.0611C28.8779 14.2723 28.6118 14.4013 28.3266 14.4196L18.0873 15.0948L17.9186 15.0982C17.6391 15.0845 17.3711 14.9758 17.1623 14.7879C16.9118 14.5624 16.7697 14.2437 16.7711 13.9101L16.0829 3.85243V3.68658C16.0954 3.40371 16.2221 3.13734 16.435 2.94622C16.6479 2.7551 16.9296 2.65492 17.2179 2.66777Z" fill="#DE8556"/>
</g>
</g>
</g>
</svg>
