<svg width="20" height="20" viewBox="0 0 20 20" fill="none" xmlns="http://www.w3.org/2000/svg">
<g id="location (3) 1">
<path id="Location" d="M10 0.833374C5.8645 0.833374 2.5 4.10557 2.5 8.12762C2.5 12.7624 5.59225 15.5586 7.64313 17.4092C8.29563 18.0259 9.15137 18.3334 10.0052 18.3334C10.8573 18.3334 11.7074 18.027 12.3505 17.4154C14.401 15.5648 17.5 12.7671 17.5 8.12762C17.5 4.10557 14.1355 0.833374 10 0.833374ZM10 11.0453C8.34588 11.0453 7 9.73637 7 8.12762C7 6.51888 8.34588 5.20992 10 5.20992C11.6541 5.20992 13 6.51888 13 8.12762C13 9.73637 11.6541 11.0453 10 11.0453Z" fill="#123E56"/>
</g>
</svg>
