<svg width="25" height="24" viewBox="0 0 25 24" fill="none" xmlns="http://www.w3.org/2000/svg">
<g id="Send">
<g id="Iconly/Light-Outline/Send">
<g id="Send_2">
<path id="Fill-1" fill-rule="evenodd" clip-rule="evenodd" d="M10.8167 14.8178L14.4737 20.7508C14.6337 21.0108 14.8837 21.0078 14.9847 20.9938C15.0857 20.9798 15.3287 20.9178 15.4167 20.6228L19.9897 5.17777C20.0697 4.90477 19.9227 4.71877 19.8567 4.65277C19.7927 4.58677 19.6097 4.44577 19.3447 4.52077L3.88866 9.04677C3.59566 9.13277 3.53166 9.37877 3.51766 9.47977C3.50366 9.58277 3.49966 9.83777 3.75866 10.0008L9.75967 13.7538L15.0617 8.39577C15.3527 8.10177 15.8277 8.09877 16.1227 8.38977C16.4177 8.68077 16.4197 9.15677 16.1287 9.45077L10.8167 14.8178ZM14.9067 22.4998C14.2107 22.4998 13.5727 22.1458 13.1967 21.5378L9.31967 15.2468L2.96366 11.2718C2.27866 10.8428 1.92066 10.0788 2.03166 9.27577C2.14166 8.47277 2.69266 7.83477 3.46666 7.60777L18.9227 3.08177C19.6337 2.87377 20.3957 3.07077 20.9197 3.59277C21.4437 4.11977 21.6387 4.88977 21.4267 5.60377L16.8537 21.0478C16.6247 21.8248 15.9847 22.3738 15.1837 22.4808C15.0897 22.4928 14.9987 22.4998 14.9067 22.4998Z" fill="white"/>
</g>
</g>
</g>
</svg>
